<svg width="69" height="70" viewBox="0 0 69 70" fill="none" xmlns="http://www.w3.org/2000/svg">
<path d="M12.7262 59.1522L7.8833 4.8125H61.1168L56.2674 59.1435L34.4677 65.1875L12.7262 59.1522Z" fill="#1572B6"/>
<path d="M34.5 60.5688L52.1166 55.6849L56.2609 9.25653H34.5V60.5688Z" fill="#33A9DC"/>
<path d="M34.5 28.9431H43.3191L43.9271 22.1186H34.5V15.4536H51.2109L51.0514 17.2411L49.4148 35.6081H34.5V28.9431Z" fill="white"/>
<path d="M34.541 46.2513L34.5109 46.2599L27.089 44.2546L26.6147 38.9395H19.9238L20.8575 49.4037L34.5087 53.1944L34.541 53.1858V46.2513Z" fill="#EBEBEB"/>
<path d="M42.7521 35.3256L41.9499 44.2503L34.5173 46.2556V53.1901L48.1793 49.4038L48.2807 48.2782L49.4386 35.3256H42.7521Z" fill="white"/>
<path d="M34.5237 15.4536V22.1186H18.4252L18.2915 20.62L17.9874 17.2411L17.8279 15.4536H34.5237ZM34.5 28.9431V35.6081H27.1709L27.0372 34.1095L26.7354 30.7306L26.5758 28.9431H34.5Z" fill="#EBEBEB"/>
</svg>
