<svg width="69" height="70" viewBox="0 0 32 33" fill="none" xmlns="http://www.w3.org/2000/svg">
<g clip-path="url(#clip0_109_9)">
<path d="M11 31.5C13.76 31.5 16 29.3347 16 26.6667V21.8334H11C8.24 21.8334 6 23.9987 6 26.6667C6 29.3347 8.24 31.5 11 31.5Z" fill="#0ACF83"/>
<path d="M6 17C6 14.332 8.24 12.1666 11 12.1666H16V21.8333H11C8.24 21.8333 6 19.668 6 17Z" fill="#A259FF"/>
<path d="M6 7.33333C6 4.66533 8.24 2.5 11 2.5H16V12.1667H11C8.24 12.1667 6 10.0013 6 7.33333Z" fill="#F24E1E"/>
<path d="M16 2.5H21C23.76 2.5 26 4.66533 26 7.33333C26 10.0013 23.76 12.1667 21 12.1667H16V2.5Z" fill="#FF7262"/>
<path d="M26 17C26 19.668 23.76 21.8333 21 21.8333C18.24 21.8333 16 19.668 16 17C16 14.332 18.24 12.1666 21 12.1666C23.76 12.1666 26 14.332 26 17Z" fill="#1ABCFE"/>
</g>
<defs>
<clipPath id="clip0_109_9">
<rect width="20" height="29" fill="white" transform="translate(6 2.5)"/>
</clipPath>
</defs>
</svg>
