<svg width="69" height="70" viewBox="0 0 69 70" fill="none" xmlns="http://www.w3.org/2000/svg">
<path d="M12.7262 59.1522L7.8811 4.8125H61.1189L56.2674 59.1435L34.4677 65.1875L12.7262 59.1522Z" fill="#E44F26"/>
<path d="M34.5 60.5688L52.1166 55.6849L56.2609 9.25653H34.5V60.5688Z" fill="#F1662A"/>
<path d="M34.5 29.4088H25.6809L25.0729 22.5843H34.5V15.9193H17.7891L17.9486 17.709L19.5852 36.0738H34.5V29.4088ZM34.5 46.7171L34.4698 46.7257L27.048 44.7225L26.5736 39.4074H19.8828L20.8164 49.8695L34.4698 53.6602L34.5 53.6516V46.7171Z" fill="#EBEBEB"/>
<path d="M34.4763 29.4088V36.0738H42.683L41.9111 44.7182L34.4763 46.7235V53.658L48.1405 49.8695L48.2397 48.7439L49.8051 31.1985L49.969 29.4088H48.1728H34.4763ZM34.4763 15.9193V22.5843H50.5749L50.7086 21.0879L51.0126 17.709L51.1722 15.9193H34.4763Z" fill="white"/>
</svg>
