<svg width="57" height="58" viewBox="0 0 57 58" fill="none" xmlns="http://www.w3.org/2000/svg">
<g clip-path="url(#clip0_70_110)">
<path d="M0 0.5H57V57.5H0V0.5Z" fill="#F7DF1E"/>
<path d="M14.9875 48.1333L19.3494 45.4935C20.191 46.9855 20.9565 48.248 22.7927 48.248C24.5528 48.248 25.6628 47.5595 25.6628 44.8814V26.6686H31.0192V44.9571C31.0192 50.505 27.7671 53.0304 23.0223 53.0304C18.7373 53.0304 16.25 50.8112 14.9873 48.1328M33.9287 47.5593L38.2901 45.0341C39.4383 46.9091 40.9305 48.2865 43.5704 48.2865C45.79 48.2865 47.2052 47.1768 47.2052 45.6462C47.2052 43.8097 45.7513 43.1591 43.3025 42.0882L41.9637 41.5137C38.099 39.869 35.5356 37.8027 35.5356 33.4409C35.5356 29.4233 38.5964 26.3622 43.3793 26.3622C46.7846 26.3622 49.2334 27.5485 50.9933 30.6476L46.8225 33.3262C45.904 31.681 44.9096 31.0306 43.3791 31.0306C41.8103 31.0306 40.8154 32.0254 40.8154 33.3262C40.8154 34.9331 41.8103 35.5839 44.1058 36.5788L45.4449 37.1526C49.9982 39.1041 52.5617 41.0936 52.5617 45.5698C52.5617 50.3912 48.7738 53.0311 43.685 53.0311C38.7111 53.0311 35.4971 50.6589 33.9285 47.5595" fill="#2D2D2D"/>
</g>
<defs>
<clipPath id="clip0_70_110">
<rect width="57" height="57" fill="white" transform="translate(0 0.5)"/>
</clipPath>
</defs>
</svg>
