<svg width="68" height="62" viewBox="0 0 68 62" fill="none" xmlns="http://www.w3.org/2000/svg">
<g clip-path="url(#clip0_70_113)">
<path d="M55.9093 20.2511C55.1856 20.001 54.4558 19.7694 53.7205 19.5563C53.844 19.048 53.9577 18.5458 54.0587 18.0524C55.7156 9.95094 54.6324 3.42421 50.9325 1.2753C47.3851 -0.784792 41.5837 1.36332 35.7245 6.49936C35.1471 7.00644 34.5825 7.52814 34.0312 8.06395C33.6621 7.70766 33.2866 7.35827 32.9047 7.01598C26.764 1.52438 20.6089 -0.790143 16.9131 1.36492C13.3688 3.43143 12.3194 9.56701 13.8111 17.245C13.9595 18.0054 14.1271 18.7619 14.3137 19.5138C13.4424 19.7631 12.6017 20.0285 11.7971 20.311C4.59768 22.8393 0 26.8014 0 30.9111C0 35.1557 4.93582 39.4131 12.4344 41.9947C13.0423 42.2031 13.6553 42.3962 14.2728 42.5739C14.0722 43.3837 13.8942 44.1989 13.7389 45.0187C12.3167 52.5635 13.4273 58.554 16.9619 60.6074C20.6127 62.728 26.7401 60.5486 32.7062 55.2953C33.19 54.8683 33.6632 54.4291 34.1252 53.9782C34.7222 54.5584 35.3352 55.1217 35.9633 55.6675C41.7428 60.6765 47.4505 62.6991 50.9817 60.6401C54.629 58.5134 55.8144 52.0779 54.2754 44.2482C54.1542 43.6348 54.0182 43.0244 53.8677 42.4177C54.298 42.2892 54.7203 42.1571 55.1321 42.0196C62.9276 39.4182 67.9997 35.2124 67.9997 30.9111C67.9997 26.7864 63.2535 22.7976 55.9093 20.2511ZM54.2186 39.2424C53.8467 39.3663 53.4653 39.4859 53.0764 39.6023C52.2158 36.8581 51.0545 33.9403 49.6331 30.9253C50.9894 27.9823 52.1061 25.1017 52.9425 22.3754C53.6382 22.5782 54.3131 22.792 54.9639 23.0175C61.2565 25.1996 65.0948 28.4254 65.0948 30.9111C65.0948 33.5587 60.9495 36.9959 54.2186 39.2424ZM51.4258 44.8165C52.1063 48.2785 52.2033 51.4087 51.7525 53.856C51.3477 56.0549 50.5333 57.5208 49.5261 58.108C47.3833 59.3575 42.8005 57.7335 37.858 53.4496C37.2737 52.9421 36.7036 52.4184 36.1482 51.8791C38.0644 49.7684 39.9793 47.3148 41.8482 44.5896C45.1356 44.2958 48.2412 43.8153 51.0577 43.1596C51.1933 43.7089 51.3161 44.2613 51.4258 44.8165ZM23.1826 57.8921C21.0889 58.6367 19.4213 58.6581 18.4133 58.0727C16.2684 56.8268 15.3767 52.0166 16.593 45.5645C16.7376 44.8021 16.9031 44.0438 17.0894 43.2907C19.8748 43.9114 22.9579 44.3576 26.2529 44.6268C28.1346 47.2934 30.1047 49.7443 32.0903 51.8906C31.6683 52.3018 31.2364 52.7026 30.7948 53.0924C28.1564 55.4152 25.5126 57.0633 23.1826 57.8921ZM13.3742 39.2261C10.0584 38.0845 7.32006 36.601 5.44316 34.9821C3.75645 33.5274 2.90513 32.083 2.90513 30.9111C2.90513 28.4171 6.5965 25.236 12.7534 23.074C13.5006 22.8118 14.2826 22.5643 15.0941 22.3321C15.9451 25.1199 17.0613 28.0348 18.4083 30.9823C17.0437 33.9734 15.9117 36.9349 15.0524 39.7556C14.4887 39.593 13.9292 39.4164 13.3742 39.2261ZM16.662 16.6829C15.3841 10.1048 16.2328 5.14264 18.3687 3.89723C20.6435 2.57074 25.6739 4.46201 30.976 9.20396C31.3217 9.51388 31.6619 9.83007 31.9962 10.1524C30.0205 12.2893 28.0685 14.722 26.2035 17.3729C23.0054 17.6715 19.9441 18.1509 17.1295 18.7933C16.9561 18.094 16.8003 17.3901 16.662 16.6829ZM45.9941 23.9785C45.3293 22.8219 44.6398 21.6799 43.9262 20.5532C46.0958 20.8295 48.1746 21.1963 50.1266 21.6447C49.5407 23.5368 48.8102 25.5148 47.9504 27.5428C47.3219 26.3417 46.6697 25.1534 45.9941 23.9785ZM34.0325 12.2438C35.3723 13.7059 36.7142 15.3382 38.0341 17.1093C35.3566 16.982 32.6747 16.9814 29.9971 17.1077C31.3184 15.3529 32.6717 13.7228 34.0325 12.2438ZM21.9942 23.9983C21.327 25.1637 20.687 26.3446 20.0745 27.5401C19.2288 25.5193 18.5049 23.5323 17.9139 21.6134C19.854 21.1763 21.923 20.8188 24.0788 20.5475C23.3572 21.6811 22.6621 22.8319 21.9942 23.9983ZM24.1407 41.4829C21.9134 41.2324 19.8134 40.8935 17.8738 40.4681C18.4741 38.515 19.2139 36.4857 20.078 34.4216C20.6928 35.6179 21.3356 36.7995 22.0056 37.9655C22.6946 39.1641 23.4081 40.338 24.1407 41.4829ZM34.1127 49.7847C32.7357 48.2886 31.3625 46.6333 30.0213 44.8531C31.3234 44.9045 32.6507 44.9307 33.9998 44.9307C35.3859 44.9307 36.7559 44.8994 38.1045 44.8389C36.7804 46.6513 35.4435 48.309 34.1127 49.7847ZM47.9777 34.3162C48.8867 36.403 49.6528 38.4216 50.261 40.3412C48.2896 40.7945 46.1609 41.1594 43.918 41.4304C44.6367 40.2828 45.3327 39.1209 46.0055 37.9454C46.6896 36.7505 47.3471 35.5405 47.9777 34.3162ZM43.4892 36.4835C42.4592 38.2858 41.3713 40.0539 40.2271 41.7849C38.1546 41.9328 36.0775 42.0062 33.9998 42.0051C31.8836 42.0051 29.8253 41.9388 27.8432 41.8093C26.6692 40.0822 25.5605 38.3111 24.5195 36.4996C23.4833 34.6977 22.5157 32.8568 21.6183 30.981C22.5135 29.1046 23.4784 27.2629 24.511 25.4597L24.5107 25.4599C25.5429 23.6562 26.6428 21.8926 27.8079 20.173C29.8301 20.0189 31.9038 19.9386 33.9996 19.9386C36.1049 19.9386 38.1815 20.0197 40.2032 20.1749C41.3566 21.8919 42.4494 23.6494 43.4797 25.4441C44.5157 27.2434 45.4934 29.0762 46.4111 30.9395C45.5028 32.8219 44.5282 34.671 43.4892 36.4835ZM49.4817 3.81001C51.7586 5.13274 52.6442 10.4668 51.2136 17.4617C51.1222 17.908 51.0197 18.3625 50.9081 18.8235C48.0867 18.1675 45.0232 17.6797 41.8158 17.3766C39.9474 14.6966 38.0113 12.2601 36.0677 10.1508C36.5771 9.65624 37.0986 9.17452 37.6317 8.70606C42.652 4.30576 47.344 2.56833 49.4817 3.81001ZM33.9998 24.7951C37.3533 24.7951 40.072 27.5334 40.072 30.9111C40.072 34.2889 37.3533 37.0272 33.9998 37.0272C30.6463 37.0272 27.9277 34.2889 27.9277 30.9111C27.9277 27.5334 30.6463 24.7951 33.9998 24.7951Z" fill="#00D8FF"/>
</g>
<defs>
<clipPath id="clip0_70_113">
<rect width="68" height="61" fill="white" transform="translate(0 0.5)"/>
</clipPath>
</defs>
</svg>
