<svg width="24" height="24" viewBox="0 0 24 24" fill="none" xmlns="http://www.w3.org/2000/svg">
<g clip-path="url(#clip0_135_150)">
<path d="M0.511219 11.8563C0.510661 13.8728 1.03754 15.8417 2.03941 17.5771L0.415405 23.5066L6.4835 21.9156C8.16185 22.8292 10.0423 23.308 11.9533 23.3081H11.9583C18.2667 23.3081 23.4018 18.1748 23.4045 11.8653C23.4057 8.80792 22.2162 5.93295 20.0548 3.76997C17.8939 1.60718 15.02 0.415458 11.9578 0.414062C5.64871 0.414062 0.513917 5.54709 0.511312 11.8563" fill="url(#paint0_linear_135_150)"/>
<path d="M0.102556 11.8527C0.101905 13.9417 0.647672 15.981 1.68525 17.7786L0.00302124 23.9207L6.2887 22.2726C8.0206 23.2168 9.97056 23.7147 11.9547 23.7154H11.9599C18.4946 23.7154 23.8142 18.3975 23.817 11.8621C23.8181 8.69488 22.5857 5.71656 20.3472 3.47609C18.1084 1.23591 15.1317 0.00130233 11.9599 0C5.42404 0 0.105161 5.31721 0.102556 11.8527ZM3.84591 17.469L3.61121 17.0965C2.6246 15.5277 2.10386 13.7149 2.1046 11.8534C2.10665 6.4213 6.52749 2.00186 11.9636 2.00186C14.5961 2.00298 17.0702 3.02921 18.931 4.89116C20.7918 6.7533 21.8157 9.22865 21.815 11.8614C21.8126 17.2935 17.3917 21.7135 11.9599 21.7135H11.956C10.1873 21.7126 8.4527 21.2376 6.93995 20.34L6.57995 20.1265L2.8499 21.1045L3.84591 17.469Z" fill="url(#paint1_linear_135_150)"/>
<path d="M8.99633 6.89746C8.77438 6.40416 8.5408 6.39421 8.32973 6.38556C8.15689 6.37811 7.95931 6.37867 7.76191 6.37867C7.56433 6.37867 7.24331 6.453 6.97196 6.74928C6.70033 7.04583 5.93494 7.76249 5.93494 9.22007C5.93494 10.6777 6.99661 12.0864 7.14461 12.2843C7.2928 12.4817 9.19419 15.5686 12.2055 16.7562C14.7082 17.743 15.2175 17.5468 15.7607 17.4973C16.304 17.448 17.5136 16.7808 17.7604 16.089C18.0074 15.3973 18.0074 14.8043 17.9334 14.6804C17.8593 14.557 17.6617 14.4829 17.3654 14.3348C17.0691 14.1866 15.6125 13.4698 15.341 13.371C15.0694 13.2722 14.8719 13.2229 14.6743 13.5195C14.4767 13.8157 13.9094 14.4829 13.7364 14.6804C13.5637 14.8785 13.3907 14.9031 13.0946 14.755C12.7981 14.6063 11.844 14.2938 10.712 13.2846C9.83122 12.4993 9.23661 11.5296 9.06377 11.2329C8.89094 10.9367 9.04526 10.7762 9.19382 10.6285C9.32694 10.4958 9.49019 10.2826 9.63847 10.1096C9.78619 9.93663 9.83549 9.81318 9.93429 9.6156C10.0332 9.41783 9.98368 9.24481 9.90973 9.09663C9.83549 8.94844 9.25977 7.48323 8.99633 6.89746Z" fill="white"/>
</g>
<defs>
<linearGradient id="paint0_linear_135_150" x1="1149.87" y1="2309.67" x2="1149.87" y2="0.414062" gradientUnits="userSpaceOnUse">
<stop stop-color="#1FAF38"/>
<stop offset="1" stop-color="#60D669"/>
</linearGradient>
<linearGradient id="paint1_linear_135_150" x1="1190.7" y1="2392.07" x2="1190.7" y2="0" gradientUnits="userSpaceOnUse">
<stop stop-color="#F9F9F9"/>
<stop offset="1" stop-color="white"/>
</linearGradient>
<clipPath id="clip0_135_150">
<rect width="23.82" height="24" fill="white"/>
</clipPath>
</defs>
</svg>
